<svg xmlns="http://www.w3.org/2000/svg" width="52.717" height="52.717" viewBox="0 0 52.717 52.717">
  <g id="Icon_ionic-ios-add-circle-outline" data-name="Icon ionic-ios-add-circle-outline" transform="translate(-3.375 -3.375)">
    <path id="Path_1" data-name="Path 1" d="M35.476,21.98H26.035V12.539a2.028,2.028,0,1,0-4.055,0V21.98H12.539a1.942,1.942,0,0,0-2.028,2.028,1.963,1.963,0,0,0,2.028,2.028H21.98v9.441A1.964,1.964,0,0,0,24.008,37.5a2.017,2.017,0,0,0,2.028-2.028V26.035h9.441a2.028,2.028,0,1,0,0-4.055Z" transform="translate(5.726 5.726)" fill="#8e8aff"/>
    <path id="Path_2" data-name="Path 2" d="M29.733,6.923A22.814,22.814,0,0,1,45.865,45.865,22.814,22.814,0,0,1,13.6,13.6,22.659,22.659,0,0,1,29.733,6.923m0-3.548A26.358,26.358,0,1,0,56.092,29.733,26.354,26.354,0,0,0,29.733,3.375Z" fill="#8e8aff"/>
  </g>
</svg>
